# xmcd
#
# Track frame offsets: 
#        183
#        14898
#        27125
#        39133
#        51385
#        65193
#        79553
#        93765
#        107430
#        121593
#        136043
#        148618
#        162275
#        175775
#        188380
#        201663
#
# Disc length: 2856 seconds
#
# Revision: 3
# Processed by: cddbd v1.5.2PL0 Copyright (c) Steve Scherf et al.
# Submitted via: ExactAudioCopyFreeDBPlugin 1.0
#
DISCID=cc0b2610
DTITLE=T. Bone Walker (Charly Blues Masterworks Vol. 14) - T. Bone Shu
DTITLE=ffle
DYEAR=1992
DGENRE=Blues
TTITLE0=I Got A Break Baby
TTITLE1=No Worry Blues
TTITLE2=Bobby Sox Blues
TTITLE3=I'm In An Awful Mood
TTITLE4=Don't Give Me The Runaround
TTITLE5=Hard Pain Blues
TTITLE6=Goodbye Blues
TTITLE7=I'm Waiting For Your Call
TTITLE8=First Love Blues
TTITLE9=Born To Be No Good
TTITLE10=Inspiration Blues
TTITLE11=Description Blues
TTITLE12=T. Bone Shuffle
TTITLE13=I Want A Little Girl
TTITLE14=I'm Still In Love With You
TTITLE15=West Side Baby
EXTD=YEAR: 1992
EXTT0=
EXTT1=
EXTT2=
EXTT3=
EXTT4=
EXTT5=
EXTT6=
EXTT7=
EXTT8=
EXTT9=
EXTT10=
EXTT11=
EXTT12=
EXTT13=
EXTT14=
EXTT15=
PLAYORDER=
